# xmcd
#
# Track frame offsets: 
#        150
#        11452
#        21932
#        32983
#        42787
#        52898
#        64750
#        77376
#        85780
#        96330
#        104449
#        115215
#        126588
#        136793
#        148743
#        160240
#        174642
#        185589
#        200625
#        210429
#        221947
#        232594
#        247936
#        257155
#        271007
#        282887
#        291682
#        302531
#        312184
#
# Disc length: 4315 seconds
#
# Revision: 1
# Processed by: cddbd v1.5.2PL0 Copyright (c) Steve Scherf et al.
# Submitted via: ExactAudioCopyFreeDBPlugin 1.0
#
DISCID=a010d91d
DTITLE=Nancy Wilson - Today My Way '65 and Naturally '66
DYEAR=2015
DGENRE=Vocal
TTITLE0=Reach Out For Me
TTITLE1=Welcome, Welcome
TTITLE2=My Love, Forgive Me
TTITLE3=Dear Heart
TTITLE4=Don't Come Running Back To Me
TTITLE5=And Satisfy
TTITLE6=You've Lost That Lovin' Feelin'
TTITLE7=Love Has Many Faces
TTITLE8=Take What I Have
TTITLE9=I'm All Smiles
TTITLE10=If I Ruled The World
TTITLE11=Where Does That Leave Me (Bonus Track - Today My Way)
TTITLE12=Afterthoughts (Bonus Track - Today My Way)
TTITLE13=In The Dark
TTITLE14=Ten Years Of Tears
TTITLE15=Since I Fell For You
TTITLE16=You Ain't Had The Blues
TTITLE17=Willow Weep For Me
TTITLE18=My Babe
TTITLE19=Just For A Thrill
TTITLE20=Okay, You Win
TTITLE21=I Wish I Didn't Love You So
TTITLE22=Smack Dab In The Middle
TTITLE23=Watch What Happens
TTITLE24=Ain't That Lovin' You
TTITLE25=The Power Of Love (Bonus Track Naturally)
TTITLE26=That Special Way (Bonus Track Naturally)
TTITLE27=Go Away (Bonus Track Naturally)
TTITLE28=Be True To Me (Bonus Track Naturally)
EXTD=YEAR: 1965
EXTT0=
EXTT1=
EXTT2=
EXTT3=
EXTT4=
EXTT5=
EXTT6=
EXTT7=
EXTT8=
EXTT9=
EXTT10=
EXTT11=
EXTT12=
EXTT13=
EXTT14=
EXTT15=
EXTT16=
EXTT17=
EXTT18=
EXTT19=
EXTT20=
EXTT21=
EXTT22=
EXTT23=
EXTT24=
EXTT25=
EXTT26=
EXTT27=
EXTT28=
PLAYORDER=
